<?xml version="1.0" encoding="UTF-8" standalone="no"?>
<!DOCTYPE svg PUBLIC "-//W3C//DTD SVG 1.1//EN"
 "http://www.w3.org/Graphics/SVG/1.1/DTD/svg11.dtd">
<!-- Generated by graphviz version 2.40.1 (20161225.0304)
 -->
<!-- Title: Tree Pages: 1 -->
<svg width="876pt" height="723pt"
 viewBox="0.00 0.00 875.81 723.20" xmlns="http://www.w3.org/2000/svg" xmlns:xlink="http://www.w3.org/1999/xlink">
<g id="graph0" class="graph" transform="scale(1 1) rotate(0) translate(4 719.2)">
<title>Tree</title>
<polygon fill="#ffffff" stroke="transparent" points="-4,4 -4,-719.2 871.8057,-719.2 871.8057,4 -4,4"/>
<!-- 0 -->
<g id="node1" class="node">
<title>0</title>
<path fill="#fafefc" stroke="#000000" d="M528.9955,-715.2C528.9955,-715.2 400.7317,-715.2 400.7317,-715.2 394.7317,-715.2 388.7317,-709.2 388.7317,-703.2 388.7317,-703.2 388.7317,-635.2 388.7317,-635.2 388.7317,-629.2 394.7317,-623.2 400.7317,-623.2 400.7317,-623.2 528.9955,-623.2 528.9955,-623.2 534.9955,-623.2 540.9955,-629.2 540.9955,-635.2 540.9955,-635.2 540.9955,-703.2 540.9955,-703.2 540.9955,-709.2 534.9955,-715.2 528.9955,-715.2"/>
<text text-anchor="start" x="396.7977" y="-698.6" font-family="Helvetica,sans-Serif" font-size="14.00" fill="#000000">petal width (cm) ≤ 0.8</text>
<text text-anchor="start" x="428.486" y="-681.8" font-family="Helvetica,sans-Serif" font-size="14.00" fill="#000000">gini = 0.666</text>
<text text-anchor="start" x="419.1543" y="-665" font-family="Helvetica,sans-Serif" font-size="14.00" fill="#000000">samples = 120</text>
<text text-anchor="start" x="405.1389" y="-648.2" font-family="Helvetica,sans-Serif" font-size="14.00" fill="#000000">value = [40, 42, 38]</text>
<text text-anchor="start" x="411" y="-631.4" font-family="Helvetica,sans-Serif" font-size="14.00" fill="#000000">class = versicolor</text>
</g>
<!-- 1 -->
<g id="node2" class="node">
<title>1</title>
<path fill="#e58139" stroke="#000000" d="M433.7479,-578.9003C433.7479,-578.9003 337.9793,-578.9003 337.9793,-578.9003 331.9793,-578.9003 325.9793,-572.9003 325.9793,-566.9003 325.9793,-566.9003 325.9793,-515.4997 325.9793,-515.4997 325.9793,-509.4997 331.9793,-503.4997 337.9793,-503.4997 337.9793,-503.4997 433.7479,-503.4997 433.7479,-503.4997 439.7479,-503.4997 445.7479,-509.4997 445.7479,-515.4997 445.7479,-515.4997 445.7479,-566.9003 445.7479,-566.9003 445.7479,-572.9003 439.7479,-578.9003 433.7479,-578.9003"/>
<text text-anchor="start" x="357.2686" y="-562.2" font-family="Helvetica,sans-Serif" font-size="14.00" fill="#000000">gini = 0.0</text>
<text text-anchor="start" x="344.0456" y="-545.4" font-family="Helvetica,sans-Serif" font-size="14.00" fill="#000000">samples = 40</text>
<text text-anchor="start" x="333.9215" y="-528.6" font-family="Helvetica,sans-Serif" font-size="14.00" fill="#000000">value = [40, 0, 0]</text>
<text text-anchor="start" x="341.3219" y="-511.8" font-family="Helvetica,sans-Serif" font-size="14.00" fill="#000000">class = setosa</text>
</g>
<!-- 0&#45;&gt;1 -->
<g id="edge1" class="edge">
<title>0&#45;&gt;1</title>
<path fill="none" stroke="#000000" d="M436.3428,-622.9891C429.2285,-611.4622 421.5981,-599.099 414.4793,-587.5647"/>
<polygon fill="#000000" stroke="#000000" points="417.3828,-585.605 409.1522,-578.9335 411.426,-589.2815 417.3828,-585.605"/>
<text text-anchor="middle" x="403.3935" y="-599.0612" font-family="Helvetica,sans-Serif" font-size="14.00" fill="#000000">True</text>
</g>
<!-- 2 -->
<g id="node3" class="node">
<title>2</title>
<path fill="#ecfdf3" stroke="#000000" d="M611.778,-587.2C611.778,-587.2 475.9492,-587.2 475.9492,-587.2 469.9492,-587.2 463.9492,-581.2 463.9492,-575.2 463.9492,-575.2 463.9492,-507.2 463.9492,-507.2 463.9492,-501.2 469.9492,-495.2 475.9492,-495.2 475.9492,-495.2 611.778,-495.2 611.778,-495.2 617.778,-495.2 623.778,-501.2 623.778,-507.2 623.778,-507.2 623.778,-575.2 623.778,-575.2 623.778,-581.2 617.778,-587.2 611.778,-587.2"/>
<text text-anchor="start" x="471.9064" y="-570.6" font-family="Helvetica,sans-Serif" font-size="14.00" fill="#000000">petal width (cm) ≤ 1.75</text>
<text text-anchor="start" x="507.486" y="-553.8" font-family="Helvetica,sans-Serif" font-size="14.00" fill="#000000">gini = 0.499</text>
<text text-anchor="start" x="502.0456" y="-537" font-family="Helvetica,sans-Serif" font-size="14.00" fill="#000000">samples = 80</text>
<text text-anchor="start" x="488.0302" y="-520.2" font-family="Helvetica,sans-Serif" font-size="14.00" fill="#000000">value = [0, 42, 38]</text>
<text text-anchor="start" x="490" y="-503.4" font-family="Helvetica,sans-Serif" font-size="14.00" fill="#000000">class = versicolor</text>
</g>
<!-- 0&#45;&gt;2 -->
<g id="edge2" class="edge">
<title>0&#45;&gt;2</title>
<path fill="none" stroke="#000000" d="M493.3844,-622.9891C498.8102,-614.1979 504.5363,-604.9202 510.1066,-595.8949"/>
<polygon fill="#000000" stroke="#000000" points="513.1109,-597.6911 515.3847,-587.3431 507.1541,-594.0146 513.1109,-597.6911"/>
<text text-anchor="middle" x="521.1434" y="-607.4708" font-family="Helvetica,sans-Serif" font-size="14.00" fill="#000000">False</text>
</g>
<!-- 3 -->
<g id="node4" class="node">
<title>3</title>
<path fill="#47e78a" stroke="#000000" d="M506.737,-459.2C506.737,-459.2 364.9902,-459.2 364.9902,-459.2 358.9902,-459.2 352.9902,-453.2 352.9902,-447.2 352.9902,-447.2 352.9902,-379.2 352.9902,-379.2 352.9902,-373.2 358.9902,-367.2 364.9902,-367.2 364.9902,-367.2 506.737,-367.2 506.737,-367.2 512.737,-367.2 518.737,-373.2 518.737,-379.2 518.737,-379.2 518.737,-447.2 518.737,-447.2 518.737,-453.2 512.737,-459.2 506.737,-459.2"/>
<text text-anchor="start" x="361.1771" y="-442.6" font-family="Helvetica,sans-Serif" font-size="14.00" fill="#000000">petal length (cm) ≤ 5.05</text>
<text text-anchor="start" x="399.486" y="-425.8" font-family="Helvetica,sans-Serif" font-size="14.00" fill="#000000">gini = 0.127</text>
<text text-anchor="start" x="394.0456" y="-409" font-family="Helvetica,sans-Serif" font-size="14.00" fill="#000000">samples = 44</text>
<text text-anchor="start" x="383.9215" y="-392.2" font-family="Helvetica,sans-Serif" font-size="14.00" fill="#000000">value = [0, 41, 3]</text>
<text text-anchor="start" x="382" y="-375.4" font-family="Helvetica,sans-Serif" font-size="14.00" fill="#000000">class = versicolor</text>
</g>
<!-- 2&#45;&gt;3 -->
<g id="edge3" class="edge">
<title>2&#45;&gt;3</title>
<path fill="none" stroke="#000000" d="M504.8731,-494.9891C497.2262,-485.926 489.143,-476.3459 481.3065,-467.0582"/>
<polygon fill="#000000" stroke="#000000" points="483.9206,-464.729 474.7968,-459.3431 478.5706,-469.2431 483.9206,-464.729"/>
</g>
<!-- 12 -->
<g id="node13" class="node">
<title>12</title>
<path fill="#853fe6" stroke="#000000" d="M722.737,-459.2C722.737,-459.2 580.9902,-459.2 580.9902,-459.2 574.9902,-459.2 568.9902,-453.2 568.9902,-447.2 568.9902,-447.2 568.9902,-379.2 568.9902,-379.2 568.9902,-373.2 574.9902,-367.2 580.9902,-367.2 580.9902,-367.2 722.737,-367.2 722.737,-367.2 728.737,-367.2 734.737,-373.2 734.737,-379.2 734.737,-379.2 734.737,-447.2 734.737,-447.2 734.737,-453.2 728.737,-459.2 722.737,-459.2"/>
<text text-anchor="start" x="577.1771" y="-442.6" font-family="Helvetica,sans-Serif" font-size="14.00" fill="#000000">petal length (cm) ≤ 4.85</text>
<text text-anchor="start" x="615.486" y="-425.8" font-family="Helvetica,sans-Serif" font-size="14.00" fill="#000000">gini = 0.054</text>
<text text-anchor="start" x="610.0456" y="-409" font-family="Helvetica,sans-Serif" font-size="14.00" fill="#000000">samples = 36</text>
<text text-anchor="start" x="599.9215" y="-392.2" font-family="Helvetica,sans-Serif" font-size="14.00" fill="#000000">value = [0, 1, 35]</text>
<text text-anchor="start" x="602.277" y="-375.4" font-family="Helvetica,sans-Serif" font-size="14.00" fill="#000000">class = virginica</text>
</g>
<!-- 2&#45;&gt;12 -->
<g id="edge12" class="edge">
<title>2&#45;&gt;12</title>
<path fill="none" stroke="#000000" d="M582.8541,-494.9891C590.501,-485.926 598.5842,-476.3459 606.4207,-467.0582"/>
<polygon fill="#000000" stroke="#000000" points="609.1566,-469.2431 612.9304,-459.3431 603.8066,-464.729 609.1566,-469.2431"/>
</g>
<!-- 4 -->
<g id="node5" class="node">
<title>4</title>
<path fill="#3ee684" stroke="#000000" d="M289.778,-331.2C289.778,-331.2 153.9492,-331.2 153.9492,-331.2 147.9492,-331.2 141.9492,-325.2 141.9492,-319.2 141.9492,-319.2 141.9492,-251.2 141.9492,-251.2 141.9492,-245.2 147.9492,-239.2 153.9492,-239.2 153.9492,-239.2 289.778,-239.2 289.778,-239.2 295.778,-239.2 301.778,-245.2 301.778,-251.2 301.778,-251.2 301.778,-319.2 301.778,-319.2 301.778,-325.2 295.778,-331.2 289.778,-331.2"/>
<text text-anchor="start" x="149.9064" y="-314.6" font-family="Helvetica,sans-Serif" font-size="14.00" fill="#000000">petal width (cm) ≤ 1.65</text>
<text text-anchor="start" x="185.486" y="-297.8" font-family="Helvetica,sans-Serif" font-size="14.00" fill="#000000">gini = 0.048</text>
<text text-anchor="start" x="180.0456" y="-281" font-family="Helvetica,sans-Serif" font-size="14.00" fill="#000000">samples = 41</text>
<text text-anchor="start" x="169.9215" y="-264.2" font-family="Helvetica,sans-Serif" font-size="14.00" fill="#000000">value = [0, 40, 1]</text>
<text text-anchor="start" x="168" y="-247.4" font-family="Helvetica,sans-Serif" font-size="14.00" fill="#000000">class = versicolor</text>
</g>
<!-- 3&#45;&gt;4 -->
<g id="edge4" class="edge">
<title>3&#45;&gt;4</title>
<path fill="none" stroke="#000000" d="M358.907,-367.1699C342.2744,-357.2214 324.5878,-346.6425 307.6412,-336.5062"/>
<polygon fill="#000000" stroke="#000000" points="309.2348,-333.3811 298.8562,-331.2516 305.6416,-339.3885 309.2348,-333.3811"/>
</g>
<!-- 9 -->
<g id="node10" class="node">
<title>9</title>
<path fill="#c09cf2" stroke="#000000" d="M508.3467,-331.2C508.3467,-331.2 363.3805,-331.2 363.3805,-331.2 357.3805,-331.2 351.3805,-325.2 351.3805,-319.2 351.3805,-319.2 351.3805,-251.2 351.3805,-251.2 351.3805,-245.2 357.3805,-239.2 363.3805,-239.2 363.3805,-239.2 508.3467,-239.2 508.3467,-239.2 514.3467,-239.2 520.3467,-245.2 520.3467,-251.2 520.3467,-251.2 520.3467,-319.2 520.3467,-319.2 520.3467,-325.2 514.3467,-331.2 508.3467,-331.2"/>
<text text-anchor="start" x="359.6224" y="-314.6" font-family="Helvetica,sans-Serif" font-size="14.00" fill="#000000">sepal length (cm) ≤ 6.05</text>
<text text-anchor="start" x="399.486" y="-297.8" font-family="Helvetica,sans-Serif" font-size="14.00" fill="#000000">gini = 0.444</text>
<text text-anchor="start" x="397.9369" y="-281" font-family="Helvetica,sans-Serif" font-size="14.00" fill="#000000">samples = 3</text>
<text text-anchor="start" x="387.8128" y="-264.2" font-family="Helvetica,sans-Serif" font-size="14.00" fill="#000000">value = [0, 1, 2]</text>
<text text-anchor="start" x="386.277" y="-247.4" font-family="Helvetica,sans-Serif" font-size="14.00" fill="#000000">class = virginica</text>
</g>
<!-- 3&#45;&gt;9 -->
<g id="edge9" class="edge">
<title>3&#45;&gt;9</title>
<path fill="none" stroke="#000000" d="M435.8636,-366.9891C435.8636,-358.7417 435.8636,-350.0661 435.8636,-341.5724"/>
<polygon fill="#000000" stroke="#000000" points="439.3637,-341.3431 435.8636,-331.3431 432.3637,-341.3431 439.3637,-341.3431"/>
</g>
<!-- 5 -->
<g id="node6" class="node">
<title>5</title>
<path fill="#39e581" stroke="#000000" d="M111.5911,-194.9003C111.5911,-194.9003 12.1361,-194.9003 12.1361,-194.9003 6.1361,-194.9003 .1361,-188.9003 .1361,-182.9003 .1361,-182.9003 .1361,-131.4997 .1361,-131.4997 .1361,-125.4997 6.1361,-119.4997 12.1361,-119.4997 12.1361,-119.4997 111.5911,-119.4997 111.5911,-119.4997 117.5911,-119.4997 123.5911,-125.4997 123.5911,-131.4997 123.5911,-131.4997 123.5911,-182.9003 123.5911,-182.9003 123.5911,-188.9003 117.5911,-194.9003 111.5911,-194.9003"/>
<text text-anchor="start" x="33.2686" y="-178.2" font-family="Helvetica,sans-Serif" font-size="14.00" fill="#000000">gini = 0.0</text>
<text text-anchor="start" x="20.0456" y="-161.4" font-family="Helvetica,sans-Serif" font-size="14.00" fill="#000000">samples = 39</text>
<text text-anchor="start" x="9.9215" y="-144.6" font-family="Helvetica,sans-Serif" font-size="14.00" fill="#000000">value = [0, 39, 0]</text>
<text text-anchor="start" x="8" y="-127.8" font-family="Helvetica,sans-Serif" font-size="14.00" fill="#000000">class = versicolor</text>
</g>
<!-- 4&#45;&gt;5 -->
<g id="edge5" class="edge">
<title>4&#45;&gt;5</title>
<path fill="none" stroke="#000000" d="M164.0999,-238.9891C148.7025,-226.6711 132.1113,-213.3981 116.8664,-201.2022"/>
<polygon fill="#000000" stroke="#000000" points="119.0256,-198.4474 109.0305,-194.9335 114.6527,-203.9135 119.0256,-198.4474"/>
</g>
<!-- 6 -->
<g id="node7" class="node">
<title>6</title>
<path fill="#ffffff" stroke="#000000" d="M290.0637,-203.2C290.0637,-203.2 153.6635,-203.2 153.6635,-203.2 147.6635,-203.2 141.6635,-197.2 141.6635,-191.2 141.6635,-191.2 141.6635,-123.2 141.6635,-123.2 141.6635,-117.2 147.6635,-111.2 153.6635,-111.2 153.6635,-111.2 290.0637,-111.2 290.0637,-111.2 296.0637,-111.2 302.0637,-117.2 302.0637,-123.2 302.0637,-123.2 302.0637,-191.2 302.0637,-191.2 302.0637,-197.2 296.0637,-203.2 290.0637,-203.2"/>
<text text-anchor="start" x="149.5137" y="-186.6" font-family="Helvetica,sans-Serif" font-size="14.00" fill="#000000">sepal length (cm) ≤ 5.8</text>
<text text-anchor="start" x="193.2686" y="-169.8" font-family="Helvetica,sans-Serif" font-size="14.00" fill="#000000">gini = 0.5</text>
<text text-anchor="start" x="183.9369" y="-153" font-family="Helvetica,sans-Serif" font-size="14.00" fill="#000000">samples = 2</text>
<text text-anchor="start" x="173.8128" y="-136.2" font-family="Helvetica,sans-Serif" font-size="14.00" fill="#000000">value = [0, 1, 1]</text>
<text text-anchor="start" x="168" y="-119.4" font-family="Helvetica,sans-Serif" font-size="14.00" fill="#000000">class = versicolor</text>
</g>
<!-- 4&#45;&gt;6 -->
<g id="edge6" class="edge">
<title>4&#45;&gt;6</title>
<path fill="none" stroke="#000000" d="M221.8636,-238.9891C221.8636,-230.7417 221.8636,-222.0661 221.8636,-213.5724"/>
<polygon fill="#000000" stroke="#000000" points="225.3637,-213.3431 221.8636,-203.3431 218.3637,-213.3431 225.3637,-213.3431"/>
</g>
<!-- 7 -->
<g id="node8" class="node">
<title>7</title>
<path fill="#8139e5" stroke="#000000" d="M199.5369,-75.3003C199.5369,-75.3003 108.1903,-75.3003 108.1903,-75.3003 102.1903,-75.3003 96.1903,-69.3003 96.1903,-63.3003 96.1903,-63.3003 96.1903,-11.8997 96.1903,-11.8997 96.1903,-5.8997 102.1903,.1003 108.1903,.1003 108.1903,.1003 199.5369,.1003 199.5369,.1003 205.5369,.1003 211.5369,-5.8997 211.5369,-11.8997 211.5369,-11.8997 211.5369,-63.3003 211.5369,-63.3003 211.5369,-69.3003 205.5369,-75.3003 199.5369,-75.3003"/>
<text text-anchor="start" x="125.2686" y="-58.6" font-family="Helvetica,sans-Serif" font-size="14.00" fill="#000000">gini = 0.0</text>
<text text-anchor="start" x="115.9369" y="-41.8" font-family="Helvetica,sans-Serif" font-size="14.00" fill="#000000">samples = 1</text>
<text text-anchor="start" x="105.8128" y="-25" font-family="Helvetica,sans-Serif" font-size="14.00" fill="#000000">value = [0, 0, 1]</text>
<text text-anchor="start" x="104.277" y="-8.2" font-family="Helvetica,sans-Serif" font-size="14.00" fill="#000000">class = virginica</text>
</g>
<!-- 6&#45;&gt;7 -->
<g id="edge7" class="edge">
<title>6&#45;&gt;7</title>
<path fill="none" stroke="#000000" d="M195.573,-110.9595C190.5276,-102.0855 185.2431,-92.791 180.1964,-83.9147"/>
<polygon fill="#000000" stroke="#000000" points="183.2318,-82.1721 175.2465,-75.2088 177.1466,-85.6319 183.2318,-82.1721"/>
</g>
<!-- 8 -->
<g id="node9" class="node">
<title>8</title>
<path fill="#39e581" stroke="#000000" d="M340.5911,-75.3003C340.5911,-75.3003 241.1361,-75.3003 241.1361,-75.3003 235.1361,-75.3003 229.1361,-69.3003 229.1361,-63.3003 229.1361,-63.3003 229.1361,-11.8997 229.1361,-11.8997 229.1361,-5.8997 235.1361,.1003 241.1361,.1003 241.1361,.1003 340.5911,.1003 340.5911,.1003 346.5911,.1003 352.5911,-5.8997 352.5911,-11.8997 352.5911,-11.8997 352.5911,-63.3003 352.5911,-63.3003 352.5911,-69.3003 346.5911,-75.3003 340.5911,-75.3003"/>
<text text-anchor="start" x="262.2686" y="-58.6" font-family="Helvetica,sans-Serif" font-size="14.00" fill="#000000">gini = 0.0</text>
<text text-anchor="start" x="252.9369" y="-41.8" font-family="Helvetica,sans-Serif" font-size="14.00" fill="#000000">samples = 1</text>
<text text-anchor="start" x="242.8128" y="-25" font-family="Helvetica,sans-Serif" font-size="14.00" fill="#000000">value = [0, 1, 0]</text>
<text text-anchor="start" x="237" y="-8.2" font-family="Helvetica,sans-Serif" font-size="14.00" fill="#000000">class = versicolor</text>
</g>
<!-- 6&#45;&gt;8 -->
<g id="edge8" class="edge">
<title>6&#45;&gt;8</title>
<path fill="none" stroke="#000000" d="M248.5408,-110.9595C253.6604,-102.0855 259.0226,-92.791 264.1436,-83.9147"/>
<polygon fill="#000000" stroke="#000000" points="267.2006,-85.6197 269.1662,-75.2088 261.1373,-82.1216 267.2006,-85.6197"/>
</g>
<!-- 10 -->
<g id="node11" class="node">
<title>10</title>
<path fill="#39e581" stroke="#000000" d="M431.5911,-194.9003C431.5911,-194.9003 332.1361,-194.9003 332.1361,-194.9003 326.1361,-194.9003 320.1361,-188.9003 320.1361,-182.9003 320.1361,-182.9003 320.1361,-131.4997 320.1361,-131.4997 320.1361,-125.4997 326.1361,-119.4997 332.1361,-119.4997 332.1361,-119.4997 431.5911,-119.4997 431.5911,-119.4997 437.5911,-119.4997 443.5911,-125.4997 443.5911,-131.4997 443.5911,-131.4997 443.5911,-182.9003 443.5911,-182.9003 443.5911,-188.9003 437.5911,-194.9003 431.5911,-194.9003"/>
<text text-anchor="start" x="353.2686" y="-178.2" font-family="Helvetica,sans-Serif" font-size="14.00" fill="#000000">gini = 0.0</text>
<text text-anchor="start" x="343.9369" y="-161.4" font-family="Helvetica,sans-Serif" font-size="14.00" fill="#000000">samples = 1</text>
<text text-anchor="start" x="333.8128" y="-144.6" font-family="Helvetica,sans-Serif" font-size="14.00" fill="#000000">value = [0, 1, 0]</text>
<text text-anchor="start" x="328" y="-127.8" font-family="Helvetica,sans-Serif" font-size="14.00" fill="#000000">class = versicolor</text>
</g>
<!-- 9&#45;&gt;10 -->
<g id="edge10" class="edge">
<title>9&#45;&gt;10</title>
<path fill="none" stroke="#000000" d="M416.3684,-238.9891C411.6008,-227.6882 406.4941,-215.5835 401.7103,-204.2441"/>
<polygon fill="#000000" stroke="#000000" points="404.8943,-202.7867 397.7824,-194.9335 398.4447,-205.5076 404.8943,-202.7867"/>
</g>
<!-- 11 -->
<g id="node12" class="node">
<title>11</title>
<path fill="#8139e5" stroke="#000000" d="M564.5369,-194.9003C564.5369,-194.9003 473.1903,-194.9003 473.1903,-194.9003 467.1903,-194.9003 461.1903,-188.9003 461.1903,-182.9003 461.1903,-182.9003 461.1903,-131.4997 461.1903,-131.4997 461.1903,-125.4997 467.1903,-119.4997 473.1903,-119.4997 473.1903,-119.4997 564.5369,-119.4997 564.5369,-119.4997 570.5369,-119.4997 576.5369,-125.4997 576.5369,-131.4997 576.5369,-131.4997 576.5369,-182.9003 576.5369,-182.9003 576.5369,-188.9003 570.5369,-194.9003 564.5369,-194.9003"/>
<text text-anchor="start" x="490.2686" y="-178.2" font-family="Helvetica,sans-Serif" font-size="14.00" fill="#000000">gini = 0.0</text>
<text text-anchor="start" x="480.9369" y="-161.4" font-family="Helvetica,sans-Serif" font-size="14.00" fill="#000000">samples = 2</text>
<text text-anchor="start" x="470.8128" y="-144.6" font-family="Helvetica,sans-Serif" font-size="14.00" fill="#000000">value = [0, 0, 2]</text>
<text text-anchor="start" x="469.277" y="-127.8" font-family="Helvetica,sans-Serif" font-size="14.00" fill="#000000">class = virginica</text>
</g>
<!-- 9&#45;&gt;11 -->
<g id="edge11" class="edge">
<title>9&#45;&gt;11</title>
<path fill="none" stroke="#000000" d="M465.8285,-238.9891C473.303,-227.4622 481.3197,-215.099 488.799,-203.5647"/>
<polygon fill="#000000" stroke="#000000" points="491.8917,-205.2282 494.3958,-194.9335 486.0184,-201.4197 491.8917,-205.2282"/>
</g>
<!-- 13 -->
<g id="node14" class="node">
<title>13</title>
<path fill="#c09cf2" stroke="#000000" d="M717.605,-331.2C717.605,-331.2 586.1222,-331.2 586.1222,-331.2 580.1222,-331.2 574.1222,-325.2 574.1222,-319.2 574.1222,-319.2 574.1222,-251.2 574.1222,-251.2 574.1222,-245.2 580.1222,-239.2 586.1222,-239.2 586.1222,-239.2 717.605,-239.2 717.605,-239.2 723.605,-239.2 729.605,-245.2 729.605,-251.2 729.605,-251.2 729.605,-319.2 729.605,-319.2 729.605,-325.2 723.605,-331.2 717.605,-331.2"/>
<text text-anchor="start" x="582.243" y="-314.6" font-family="Helvetica,sans-Serif" font-size="14.00" fill="#000000">sepal width (cm) ≤ 3.1</text>
<text text-anchor="start" x="615.486" y="-297.8" font-family="Helvetica,sans-Serif" font-size="14.00" fill="#000000">gini = 0.444</text>
<text text-anchor="start" x="613.9369" y="-281" font-family="Helvetica,sans-Serif" font-size="14.00" fill="#000000">samples = 3</text>
<text text-anchor="start" x="603.8128" y="-264.2" font-family="Helvetica,sans-Serif" font-size="14.00" fill="#000000">value = [0, 1, 2]</text>
<text text-anchor="start" x="602.277" y="-247.4" font-family="Helvetica,sans-Serif" font-size="14.00" fill="#000000">class = virginica</text>
</g>
<!-- 12&#45;&gt;13 -->
<g id="edge13" class="edge">
<title>12&#45;&gt;13</title>
<path fill="none" stroke="#000000" d="M651.8636,-366.9891C651.8636,-358.7417 651.8636,-350.0661 651.8636,-341.5724"/>
<polygon fill="#000000" stroke="#000000" points="655.3637,-341.3431 651.8636,-331.3431 648.3637,-341.3431 655.3637,-341.3431"/>
</g>
<!-- 16 -->
<g id="node17" class="node">
<title>16</title>
<path fill="#8139e5" stroke="#000000" d="M855.7479,-322.9003C855.7479,-322.9003 759.9793,-322.9003 759.9793,-322.9003 753.9793,-322.9003 747.9793,-316.9003 747.9793,-310.9003 747.9793,-310.9003 747.9793,-259.4997 747.9793,-259.4997 747.9793,-253.4997 753.9793,-247.4997 759.9793,-247.4997 759.9793,-247.4997 855.7479,-247.4997 855.7479,-247.4997 861.7479,-247.4997 867.7479,-253.4997 867.7479,-259.4997 867.7479,-259.4997 867.7479,-310.9003 867.7479,-310.9003 867.7479,-316.9003 861.7479,-322.9003 855.7479,-322.9003"/>
<text text-anchor="start" x="779.2686" y="-306.2" font-family="Helvetica,sans-Serif" font-size="14.00" fill="#000000">gini = 0.0</text>
<text text-anchor="start" x="766.0456" y="-289.4" font-family="Helvetica,sans-Serif" font-size="14.00" fill="#000000">samples = 33</text>
<text text-anchor="start" x="755.9215" y="-272.6" font-family="Helvetica,sans-Serif" font-size="14.00" fill="#000000">value = [0, 0, 33]</text>
<text text-anchor="start" x="758.277" y="-255.8" font-family="Helvetica,sans-Serif" font-size="14.00" fill="#000000">class = virginica</text>
</g>
<!-- 12&#45;&gt;16 -->
<g id="edge16" class="edge">
<title>12&#45;&gt;16</title>
<path fill="none" stroke="#000000" d="M708.1832,-366.9891C723.058,-354.7841 739.0754,-341.6416 753.8265,-329.5382"/>
<polygon fill="#000000" stroke="#000000" points="756.3653,-331.9825 761.8759,-322.9335 751.925,-326.5709 756.3653,-331.9825"/>
</g>
<!-- 14 -->
<g id="node15" class="node">
<title>14</title>
<path fill="#8139e5" stroke="#000000" d="M697.5369,-194.9003C697.5369,-194.9003 606.1903,-194.9003 606.1903,-194.9003 600.1903,-194.9003 594.1903,-188.9003 594.1903,-182.9003 594.1903,-182.9003 594.1903,-131.4997 594.1903,-131.4997 594.1903,-125.4997 600.1903,-119.4997 606.1903,-119.4997 606.1903,-119.4997 697.5369,-119.4997 697.5369,-119.4997 703.5369,-119.4997 709.5369,-125.4997 709.5369,-131.4997 709.5369,-131.4997 709.5369,-182.9003 709.5369,-182.9003 709.5369,-188.9003 703.5369,-194.9003 697.5369,-194.9003"/>
<text text-anchor="start" x="623.2686" y="-178.2" font-family="Helvetica,sans-Serif" font-size="14.00" fill="#000000">gini = 0.0</text>
<text text-anchor="start" x="613.9369" y="-161.4" font-family="Helvetica,sans-Serif" font-size="14.00" fill="#000000">samples = 2</text>
<text text-anchor="start" x="603.8128" y="-144.6" font-family="Helvetica,sans-Serif" font-size="14.00" fill="#000000">value = [0, 0, 2]</text>
<text text-anchor="start" x="602.277" y="-127.8" font-family="Helvetica,sans-Serif" font-size="14.00" fill="#000000">class = virginica</text>
</g>
<!-- 13&#45;&gt;14 -->
<g id="edge14" class="edge">
<title>13&#45;&gt;14</title>
<path fill="none" stroke="#000000" d="M651.8636,-238.9891C651.8636,-228.0272 651.8636,-216.309 651.8636,-205.2667"/>
<polygon fill="#000000" stroke="#000000" points="655.3637,-204.9335 651.8636,-194.9335 648.3637,-204.9335 655.3637,-204.9335"/>
</g>
<!-- 15 -->
<g id="node16" class="node">
<title>15</title>
<path fill="#39e581" stroke="#000000" d="M838.5911,-194.9003C838.5911,-194.9003 739.1361,-194.9003 739.1361,-194.9003 733.1361,-194.9003 727.1361,-188.9003 727.1361,-182.9003 727.1361,-182.9003 727.1361,-131.4997 727.1361,-131.4997 727.1361,-125.4997 733.1361,-119.4997 739.1361,-119.4997 739.1361,-119.4997 838.5911,-119.4997 838.5911,-119.4997 844.5911,-119.4997 850.5911,-125.4997 850.5911,-131.4997 850.5911,-131.4997 850.5911,-182.9003 850.5911,-182.9003 850.5911,-188.9003 844.5911,-194.9003 838.5911,-194.9003"/>
<text text-anchor="start" x="760.2686" y="-178.2" font-family="Helvetica,sans-Serif" font-size="14.00" fill="#000000">gini = 0.0</text>
<text text-anchor="start" x="750.9369" y="-161.4" font-family="Helvetica,sans-Serif" font-size="14.00" fill="#000000">samples = 1</text>
<text text-anchor="start" x="740.8128" y="-144.6" font-family="Helvetica,sans-Serif" font-size="14.00" fill="#000000">value = [0, 1, 0]</text>
<text text-anchor="start" x="735" y="-127.8" font-family="Helvetica,sans-Serif" font-size="14.00" fill="#000000">class = versicolor</text>
</g>
<!-- 13&#45;&gt;15 -->
<g id="edge15" class="edge">
<title>13&#45;&gt;15</title>
<path fill="none" stroke="#000000" d="M701.3237,-238.9891C714.2659,-226.8971 728.193,-213.8849 741.0478,-201.8746"/>
<polygon fill="#000000" stroke="#000000" points="743.5594,-204.318 748.477,-194.9335 738.7805,-199.2031 743.5594,-204.318"/>
</g>
</g>
</svg>
